<mxfile host="app.diagrams.net" modified="2022-12-25T09:09:33.179Z" agent="5.0 (Macintosh; Intel Mac OS X 10_15_7) AppleWebKit/537.36 (KHTML, like Gecko) Chrome/108.0.0.0 Safari/537.36" etag="Sn3byq5P5zjZ8-kvVDPq" version="20.7.4" type="github">
  <diagram id="6fCkQnfvTHWw5Nz4_dTc" name="Page-1">
    <mxGraphModel dx="1050" dy="509" grid="1" gridSize="10" guides="1" tooltips="1" connect="1" arrows="1" fold="1" page="1" pageScale="1" pageWidth="827" pageHeight="1169" math="0" shadow="0">
      <root>
        <mxCell id="0" />
        <mxCell id="1" parent="0" />
        <mxCell id="8L1h696zqM6Jr5x79oPo-1" value="" style="rounded=0;whiteSpace=wrap;html=1;align=left;fillColor=#dae8fc;strokeColor=#6c8ebf;fontColor=default;labelBackgroundColor=default;" parent="1" vertex="1">
          <mxGeometry x="20" y="100" width="860" height="480" as="geometry" />
        </mxCell>
        <mxCell id="AQaz5W7iAk5SUsFatGqs-4" value="" style="rounded=0;whiteSpace=wrap;html=1;labelBackgroundColor=default;strokeColor=#82b366;fillColor=#d5e8d4;" vertex="1" parent="1">
          <mxGeometry x="460" y="320" width="410" height="240" as="geometry" />
        </mxCell>
        <mxCell id="AQaz5W7iAk5SUsFatGqs-1" value="" style="rounded=0;whiteSpace=wrap;html=1;labelBackgroundColor=default;strokeColor=#d6b656;fillColor=#fff2cc;" vertex="1" parent="1">
          <mxGeometry x="30" y="400" width="417.5" height="160" as="geometry" />
        </mxCell>
        <mxCell id="8L1h696zqM6Jr5x79oPo-76" value="" style="rounded=0;whiteSpace=wrap;html=1;labelBackgroundColor=default;strokeColor=#d6b656;fillColor=#fff2cc;" parent="1" vertex="1">
          <mxGeometry x="30" y="270" width="417.5" height="110" as="geometry" />
        </mxCell>
        <mxCell id="8L1h696zqM6Jr5x79oPo-75" value="" style="rounded=0;whiteSpace=wrap;html=1;labelBackgroundColor=default;strokeColor=#82b366;fillColor=#d5e8d4;" parent="1" vertex="1">
          <mxGeometry x="460" y="110" width="410" height="190" as="geometry" />
        </mxCell>
        <mxCell id="8L1h696zqM6Jr5x79oPo-13" style="edgeStyle=orthogonalEdgeStyle;rounded=0;orthogonalLoop=1;jettySize=auto;html=1;exitX=1;exitY=0.5;exitDx=0;exitDy=0;entryX=0;entryY=0.5;entryDx=0;entryDy=0;fontColor=none;" parent="1" source="8L1h696zqM6Jr5x79oPo-2" target="8L1h696zqM6Jr5x79oPo-3" edge="1">
          <mxGeometry relative="1" as="geometry" />
        </mxCell>
        <mxCell id="8L1h696zqM6Jr5x79oPo-85" style="edgeStyle=orthogonalEdgeStyle;rounded=0;orthogonalLoop=1;jettySize=auto;html=1;entryX=0.75;entryY=0;entryDx=0;entryDy=0;strokeWidth=1;fontColor=default;endArrow=classic;endFill=1;" parent="1" source="8L1h696zqM6Jr5x79oPo-2" target="8L1h696zqM6Jr5x79oPo-40" edge="1">
          <mxGeometry relative="1" as="geometry" />
        </mxCell>
        <mxCell id="8L1h696zqM6Jr5x79oPo-86" style="edgeStyle=orthogonalEdgeStyle;rounded=0;orthogonalLoop=1;jettySize=auto;html=1;entryX=0.25;entryY=0;entryDx=0;entryDy=0;strokeWidth=1;fontColor=default;endArrow=classic;endFill=1;" parent="1" source="8L1h696zqM6Jr5x79oPo-2" target="8L1h696zqM6Jr5x79oPo-41" edge="1">
          <mxGeometry relative="1" as="geometry" />
        </mxCell>
        <mxCell id="8L1h696zqM6Jr5x79oPo-2" value="TableEnvironment" style="rounded=1;whiteSpace=wrap;html=1;fillColor=#f5f5f5;fontColor=#333333;strokeColor=#666666;" parent="1" vertex="1">
          <mxGeometry x="183.75" y="170.37" width="110" height="31" as="geometry" />
        </mxCell>
        <mxCell id="8L1h696zqM6Jr5x79oPo-43" style="edgeStyle=orthogonalEdgeStyle;rounded=0;orthogonalLoop=1;jettySize=auto;html=1;fontColor=default;exitX=1;exitY=0.5;exitDx=0;exitDy=0;entryX=0;entryY=0.5;entryDx=0;entryDy=0;" parent="1" source="8L1h696zqM6Jr5x79oPo-3" target="8L1h696zqM6Jr5x79oPo-4" edge="1">
          <mxGeometry relative="1" as="geometry" />
        </mxCell>
        <mxCell id="8L1h696zqM6Jr5x79oPo-3" value="CatalogManager" style="rounded=1;whiteSpace=wrap;html=1;fillColor=#f5f5f5;fontColor=#333333;strokeColor=#666666;" parent="1" vertex="1">
          <mxGeometry x="330" y="171.06" width="100" height="29.63" as="geometry" />
        </mxCell>
        <mxCell id="8L1h696zqM6Jr5x79oPo-4" value="Catalog" style="rounded=1;whiteSpace=wrap;html=1;fillColor=#b1ddf0;strokeColor=#10739e;" parent="1" vertex="1">
          <mxGeometry x="475" y="163.75" width="64" height="44.25" as="geometry" />
        </mxCell>
        <mxCell id="8L1h696zqM6Jr5x79oPo-19" style="edgeStyle=orthogonalEdgeStyle;rounded=0;orthogonalLoop=1;jettySize=auto;html=1;fontColor=none;startArrow=classic;startFill=1;" parent="1" source="8L1h696zqM6Jr5x79oPo-7" target="8L1h696zqM6Jr5x79oPo-11" edge="1">
          <mxGeometry relative="1" as="geometry" />
        </mxCell>
        <mxCell id="8L1h696zqM6Jr5x79oPo-7" value="HiveCatalog" style="rounded=1;whiteSpace=wrap;html=1;fillColor=#b1ddf0;strokeColor=#10739e;" parent="1" vertex="1">
          <mxGeometry x="580" y="169.06" width="100" height="35" as="geometry" />
        </mxCell>
        <mxCell id="8L1h696zqM6Jr5x79oPo-8" value="Flink Iceberg Connector and Catalog" style="rounded=0;whiteSpace=wrap;html=1;fontColor=none;" parent="1" vertex="1">
          <mxGeometry x="20" y="100" width="200" height="30" as="geometry" />
        </mxCell>
        <mxCell id="8L1h696zqM6Jr5x79oPo-29" style="edgeStyle=orthogonalEdgeStyle;rounded=0;orthogonalLoop=1;jettySize=auto;html=1;fontColor=none;startArrow=classic;startFill=1;entryX=0.5;entryY=0;entryDx=0;entryDy=0;" parent="1" source="8L1h696zqM6Jr5x79oPo-11" target="8L1h696zqM6Jr5x79oPo-28" edge="1">
          <mxGeometry relative="1" as="geometry">
            <mxPoint x="644" y="423.25" as="targetPoint" />
          </mxGeometry>
        </mxCell>
        <mxCell id="8L1h696zqM6Jr5x79oPo-11" value="HiveShim" style="rounded=1;whiteSpace=wrap;html=1;fillColor=#bac8d3;strokeColor=#23445d;" parent="1" vertex="1">
          <mxGeometry x="749" y="165.87" width="100" height="40" as="geometry" />
        </mxCell>
        <mxCell id="8L1h696zqM6Jr5x79oPo-23" value="Hive Metastore" style="strokeWidth=2;html=1;shape=mxgraph.flowchart.database;whiteSpace=wrap;fontColor=none;" parent="1" vertex="1">
          <mxGeometry x="926" y="230" width="70" height="80" as="geometry" />
        </mxCell>
        <mxCell id="8L1h696zqM6Jr5x79oPo-38" style="edgeStyle=orthogonalEdgeStyle;rounded=0;orthogonalLoop=1;jettySize=auto;html=1;fontColor=none;" parent="1" source="8L1h696zqM6Jr5x79oPo-27" target="8L1h696zqM6Jr5x79oPo-32" edge="1">
          <mxGeometry relative="1" as="geometry" />
        </mxCell>
        <mxCell id="8L1h696zqM6Jr5x79oPo-27" value="AWSCatalog&lt;br&gt;MetastoreClient" style="rounded=1;whiteSpace=wrap;html=1;fillColor=#d0cee2;strokeColor=#56517e;" parent="1" vertex="1">
          <mxGeometry x="734" y="459" width="130" height="40" as="geometry" />
        </mxCell>
        <mxCell id="8L1h696zqM6Jr5x79oPo-37" style="edgeStyle=orthogonalEdgeStyle;rounded=0;orthogonalLoop=1;jettySize=auto;html=1;exitX=1;exitY=0.5;exitDx=0;exitDy=0;entryX=0;entryY=0.5;entryDx=0;entryDy=0;entryPerimeter=0;fontColor=none;startArrow=classic;startFill=1;" parent="1" source="8L1h696zqM6Jr5x79oPo-28" target="8L1h696zqM6Jr5x79oPo-23" edge="1">
          <mxGeometry relative="1" as="geometry" />
        </mxCell>
        <mxCell id="8L1h696zqM6Jr5x79oPo-28" value="Hive&lt;br&gt;MetaStoreClient" style="rounded=1;whiteSpace=wrap;html=1;fillColor=#d0cee2;strokeColor=#56517e;" parent="1" vertex="1">
          <mxGeometry x="734" y="250" width="130" height="40" as="geometry" />
        </mxCell>
        <mxCell id="8L1h696zqM6Jr5x79oPo-32" value="AWS Glue &lt;br&gt;Data Catalog" style="sketch=0;outlineConnect=0;fontColor=#232F3E;gradientColor=none;fillColor=#4D27AA;strokeColor=none;dashed=0;verticalLabelPosition=bottom;verticalAlign=top;align=center;html=1;fontSize=12;fontStyle=0;aspect=fixed;pointerEvents=1;shape=mxgraph.aws4.glue_data_catalog;" parent="1" vertex="1">
          <mxGeometry x="924" y="440" width="72" height="78" as="geometry" />
        </mxCell>
        <mxCell id="8L1h696zqM6Jr5x79oPo-39" value="" style="shape=image;verticalLabelPosition=bottom;labelBackgroundColor=default;verticalAlign=top;aspect=fixed;imageAspect=0;image=https://hive.apache.org/images/hive_logo_medium.jpg;" parent="1" vertex="1">
          <mxGeometry x="938" y="209.47000000000003" width="44" height="40.53" as="geometry" />
        </mxCell>
        <mxCell id="8L1h696zqM6Jr5x79oPo-51" style="edgeStyle=orthogonalEdgeStyle;rounded=0;orthogonalLoop=1;jettySize=auto;html=1;fontColor=default;dashed=1;endArrow=block;endFill=0;exitX=0.25;exitY=0;exitDx=0;exitDy=0;" parent="1" source="8L1h696zqM6Jr5x79oPo-44" edge="1">
          <mxGeometry relative="1" as="geometry">
            <mxPoint x="123" y="350" as="targetPoint" />
          </mxGeometry>
        </mxCell>
        <mxCell id="8L1h696zqM6Jr5x79oPo-40" value="&lt;div style=&quot;font-family: Menlo, Monaco, &amp;quot;Courier New&amp;quot;, monospace; line-height: 18px;&quot;&gt;&lt;div style=&quot;line-height: 18px;&quot;&gt;DynamicTableSourceFactory&lt;/div&gt;&lt;/div&gt;" style="rounded=1;whiteSpace=wrap;html=1;fontColor=default;strokeColor=default;labelBackgroundColor=default;" parent="1" vertex="1">
          <mxGeometry x="37.5" y="320" width="170" height="30" as="geometry" />
        </mxCell>
        <mxCell id="8L1h696zqM6Jr5x79oPo-54" style="edgeStyle=orthogonalEdgeStyle;rounded=0;orthogonalLoop=1;jettySize=auto;html=1;dashed=1;fontColor=default;endArrow=block;endFill=0;exitX=0.75;exitY=0;exitDx=0;exitDy=0;" parent="1" target="8L1h696zqM6Jr5x79oPo-41" edge="1" source="8L1h696zqM6Jr5x79oPo-44">
          <mxGeometry relative="1" as="geometry">
            <mxPoint x="342" y="410" as="sourcePoint" />
          </mxGeometry>
        </mxCell>
        <mxCell id="8L1h696zqM6Jr5x79oPo-41" value="&lt;div style=&quot;font-family: Menlo, Monaco, &amp;quot;Courier New&amp;quot;, monospace; line-height: 18px;&quot;&gt;DynamicTableSinkFactory&lt;/div&gt;" style="rounded=1;whiteSpace=wrap;html=1;fontColor=default;strokeColor=default;labelBackgroundColor=none;" parent="1" vertex="1">
          <mxGeometry x="244" y="320" width="196" height="30" as="geometry" />
        </mxCell>
        <mxCell id="8L1h696zqM6Jr5x79oPo-87" style="edgeStyle=orthogonalEdgeStyle;rounded=0;orthogonalLoop=1;jettySize=auto;html=1;exitX=0.5;exitY=1;exitDx=0;exitDy=0;entryX=0.5;entryY=0;entryDx=0;entryDy=0;entryPerimeter=0;strokeWidth=1;fontColor=default;startArrow=classic;startFill=1;endArrow=classic;endFill=1;" parent="1" source="8L1h696zqM6Jr5x79oPo-44" target="8L1h696zqM6Jr5x79oPo-68" edge="1">
          <mxGeometry relative="1" as="geometry" />
        </mxCell>
        <mxCell id="8L1h696zqM6Jr5x79oPo-44" value="FlinkDynamicTableFactory" style="rounded=1;whiteSpace=wrap;strokeColor=#d79b00;labelBackgroundColor=none;fillColor=#ffe6cc;" parent="1" vertex="1">
          <mxGeometry x="133" y="440" width="170" height="30" as="geometry" />
        </mxCell>
        <mxCell id="8L1h696zqM6Jr5x79oPo-68" value="Amazon S3" style="sketch=0;points=[[0,0,0],[0.25,0,0],[0.5,0,0],[0.75,0,0],[1,0,0],[0,1,0],[0.25,1,0],[0.5,1,0],[0.75,1,0],[1,1,0],[0,0.25,0],[0,0.5,0],[0,0.75,0],[1,0.25,0],[1,0.5,0],[1,0.75,0]];outlineConnect=0;fontColor=#232F3E;gradientColor=#60A337;gradientDirection=north;fillColor=#277116;strokeColor=#ffffff;dashed=0;verticalLabelPosition=bottom;verticalAlign=top;align=center;html=1;fontSize=12;fontStyle=0;aspect=fixed;shape=mxgraph.aws4.resourceIcon;resIcon=mxgraph.aws4.s3;labelBackgroundColor=default;" parent="1" vertex="1">
          <mxGeometry x="179" y="650" width="78" height="78" as="geometry" />
        </mxCell>
        <mxCell id="8L1h696zqM6Jr5x79oPo-77" value="Flink Catalog" style="rounded=0;whiteSpace=wrap;html=1;fontColor=none;" parent="1" vertex="1">
          <mxGeometry x="460" y="110.25" width="100" height="29.75" as="geometry" />
        </mxCell>
        <mxCell id="8L1h696zqM6Jr5x79oPo-78" value="Flink Connector" style="rounded=0;whiteSpace=wrap;html=1;fontColor=none;" parent="1" vertex="1">
          <mxGeometry x="30" y="270" width="100" height="29.75" as="geometry" />
        </mxCell>
        <mxCell id="8L1h696zqM6Jr5x79oPo-80" style="edgeStyle=orthogonalEdgeStyle;rounded=0;orthogonalLoop=1;jettySize=auto;html=1;entryX=0;entryY=0.5;entryDx=0;entryDy=0;strokeWidth=1;fontColor=#000000;endArrow=classic;endFill=1;" parent="1" source="8L1h696zqM6Jr5x79oPo-79" target="8L1h696zqM6Jr5x79oPo-2" edge="1">
          <mxGeometry relative="1" as="geometry" />
        </mxCell>
        <mxCell id="8L1h696zqM6Jr5x79oPo-79" value="&lt;div style=&quot;font-family: Menlo, Monaco, &amp;quot;Courier New&amp;quot;, monospace; line-height: 18px;&quot;&gt;&lt;span style=&quot;font-style: italic;&quot;&gt;SqlClient&lt;/span&gt;&lt;/div&gt;" style="rounded=1;whiteSpace=wrap;html=1;fillColor=#f5f5f5;fontColor=default;strokeColor=#666666;labelBackgroundColor=none;" parent="1" vertex="1">
          <mxGeometry x="30" y="171.06" width="110" height="31" as="geometry" />
        </mxCell>
        <mxCell id="8L1h696zqM6Jr5x79oPo-82" value="" style="endArrow=block;dashed=1;html=1;rounded=0;fontColor=none;entryX=1;entryY=0.5;entryDx=0;entryDy=0;exitX=0;exitY=0.5;exitDx=0;exitDy=0;endFill=0;" parent="1" source="8L1h696zqM6Jr5x79oPo-7" target="8L1h696zqM6Jr5x79oPo-4" edge="1">
          <mxGeometry width="50" height="50" relative="1" as="geometry">
            <mxPoint x="585" y="225.88" as="sourcePoint" />
            <mxPoint x="530" y="208.005" as="targetPoint" />
          </mxGeometry>
        </mxCell>
        <mxCell id="AQaz5W7iAk5SUsFatGqs-2" value="Iceberg Connector" style="rounded=0;whiteSpace=wrap;html=1;fontColor=none;" vertex="1" parent="1">
          <mxGeometry x="30" y="400" width="120" height="30" as="geometry" />
        </mxCell>
        <mxCell id="AQaz5W7iAk5SUsFatGqs-3" value="FlinkCatalog" style="rounded=1;whiteSpace=wrap;html=1;fillColor=#b1ddf0;strokeColor=#10739e;" vertex="1" parent="1">
          <mxGeometry x="580" y="330" width="100" height="35" as="geometry" />
        </mxCell>
        <mxCell id="AQaz5W7iAk5SUsFatGqs-5" value="Iceberg Catalog" style="rounded=0;whiteSpace=wrap;html=1;fontColor=none;" vertex="1" parent="1">
          <mxGeometry x="460" y="320.25" width="100" height="29.75" as="geometry" />
        </mxCell>
        <mxCell id="AQaz5W7iAk5SUsFatGqs-7" value="Catalog&lt;br&gt;(Iceberg)" style="rounded=1;whiteSpace=wrap;html=1;fillColor=#b1ddf0;strokeColor=#10739e;" vertex="1" parent="1">
          <mxGeometry x="475" y="410" width="64" height="44.25" as="geometry" />
        </mxCell>
        <mxCell id="AQaz5W7iAk5SUsFatGqs-8" value="FlinkCatalog" style="rounded=1;whiteSpace=wrap;html=1;fillColor=#b1ddf0;strokeColor=#10739e;" vertex="1" parent="1">
          <mxGeometry x="580" y="380" width="100" height="35" as="geometry" />
        </mxCell>
      </root>
    </mxGraphModel>
  </diagram>
</mxfile>
